<svg width="40" height="40" viewBox="0 0 40 40" fill="none" xmlns="http://www.w3.org/2000/svg">
<rect x="0.5" y="0.5" width="39" height="39" stroke="#323232"/>
<path fill-rule="evenodd" clip-rule="evenodd" d="M20.7445 11.8873C20.3334 11.4762 19.6669 11.4762 19.2558 11.8873C18.8448 12.2983 18.8448 12.9648 19.2558 13.3759L24.8273 18.9474H12.6317C12.0504 18.9474 11.5791 19.4186 11.5791 20C11.5791 20.5814 12.0504 21.0526 12.6317 21.0526H24.8273L19.2558 26.6241C18.8448 27.0352 18.8448 27.7017 19.2558 28.1127C19.6669 28.5238 20.3334 28.5238 20.7445 28.1127L28.1129 20.7443C28.524 20.3332 28.524 19.6668 28.1129 19.2557L20.7445 11.8873Z" fill="#323232"/>
</svg>
