<svg width="40" height="40" viewBox="0 0 40 40" fill="none" xmlns="http://www.w3.org/2000/svg">
<rect x="39.5" y="39.5" width="39" height="39" transform="rotate(-180 39.5 39.5)" stroke="#323232"/>
<path fill-rule="evenodd" clip-rule="evenodd" d="M19.2555 28.1127C19.6666 28.5238 20.3331 28.5238 20.7442 28.1127C21.1552 27.7017 21.1552 27.0352 20.7442 26.6241L15.1727 21.0526L27.3683 21.0526C27.9496 21.0526 28.4209 20.5814 28.4209 20C28.4209 19.4186 27.9496 18.9474 27.3683 18.9474L15.1727 18.9474L20.7442 13.3759C21.1552 12.9648 21.1552 12.2983 20.7442 11.8873C20.3331 11.4762 19.6666 11.4762 19.2555 11.8873L11.8871 19.2557C11.476 19.6668 11.476 20.3332 11.8871 20.7443L19.2555 28.1127Z" fill="#323232"/>
</svg>
