<svg width="20" height="13" viewBox="0 0 20 13" fill="none" xmlns="http://www.w3.org/2000/svg">
<path d="M7.11605 12.161C7.6242 12.0563 8.06728 11.8591 8.4391 11.5757C8.77063 11.3262 9.04949 11.0212 9.27258 10.6577C9.61961 10.1094 9.79313 9.49025 9.79313 8.79714C9.79313 8.12868 9.6413 7.55879 9.33765 7.08748C9.0309 6.61925 8.58162 6.27732 7.98052 6.0586C8.37403 5.86145 8.67458 5.63966 8.87598 5.3963C9.2385 4.96504 9.41821 4.39207 9.41821 3.6774C9.41821 2.98738 9.2385 2.39592 8.88218 1.89997C8.28417 1.09289 7.27097 0.677022 5.84257 0.658539H0.172363V12.3181H5.45836C6.05327 12.3181 6.6079 12.2658 7.11605 12.161ZM2.51171 2.68241H5.06486C5.62568 2.68241 6.08735 2.74402 6.44987 2.86416C6.87127 3.03974 7.07886 3.39708 7.07886 3.93924C7.07886 4.43212 6.92084 4.77097 6.6017 4.96504C6.28566 5.15603 5.87356 5.2546 5.36231 5.2546H2.51171V2.68241ZM2.51171 10.2943V7.18298H5.39949C5.90454 7.18914 6.29185 7.25383 6.57071 7.38321C7.06957 7.60808 7.31745 8.02395 7.31745 8.6308C7.31745 9.34855 7.06027 9.83526 6.54593 10.0879C6.26397 10.2234 5.86736 10.2943 5.35921 10.2943H2.51171Z" fill="#FF4D00"/>
<path d="M11.7829 11.3062C12.666 12.0116 13.6854 12.3659 14.838 12.3659C16.2354 12.3659 17.3261 11.9469 18.1007 11.109C18.6027 10.5792 18.8815 10.0617 18.9435 9.5503H16.6259C16.4926 9.8029 16.3377 10.0001 16.1611 10.1418C15.8357 10.4067 15.4174 10.5391 14.9 10.5391C14.4135 10.5391 13.9983 10.4313 13.6513 10.2126C13.0812 9.86451 12.7775 9.26074 12.7435 8.39513H19.0613C19.0705 7.64965 19.0458 7.07977 18.9869 6.68238C18.8815 6.00776 18.6492 5.41323 18.2959 4.90187C17.9024 4.31966 17.4005 3.89456 16.7963 3.62348C16.1921 3.35548 15.5104 3.21994 14.7544 3.21994C13.484 3.21994 12.4522 3.6204 11.6559 4.41824C10.8596 5.213 10.4599 6.35894 10.4599 7.85296C10.4599 9.44557 10.8999 10.5977 11.7829 11.3062ZM13.4034 5.57342C13.7257 5.2438 14.175 5.08054 14.7575 5.08054C15.2935 5.08054 15.7397 5.23456 16.1022 5.54569C16.4647 5.85374 16.6661 6.30965 16.7064 6.90726H12.7992C12.8829 6.34661 13.0843 5.89995 13.4034 5.57342Z" fill="#FF4D00"/>
<path d="M17.1799 1.1252H12.0829V2.30194H17.1799V1.1252Z" fill="#FF4D00"/>
</svg>
