<svg width="133" height="840" viewBox="0 0 133 840" fill="none" xmlns="http://www.w3.org/2000/svg">
<path d="M0.119994 780.148C0.119993 764.668 5.03999 751.228 14.88 739.828L35.04 756.928C32.4 760.528 30.36 764.068 28.92 767.548C27.48 770.908 26.76 774.508 26.76 778.348C26.76 785.668 30.06 791.368 36.66 795.448C43.26 799.408 53.04 801.388 66 801.388C78.96 801.388 88.68 799.348 95.16 795.268C101.52 791.188 104.7 785.368 104.7 777.808C104.7 773.728 103.86 769.948 102.18 766.468C100.5 762.868 97.98 758.908 94.62 754.588L115.14 738.388C120.18 743.428 124.38 749.548 127.74 756.748C130.98 763.828 132.6 771.448 132.6 779.608C132.6 791.968 130.08 802.648 125.04 811.648C119.88 820.648 112.32 827.608 102.36 832.528C92.4 837.448 80.28 839.908 66 839.908C52.32 839.908 40.56 837.388 30.72 832.348C20.76 827.308 13.2 820.288 8.03999 811.288C2.75999 802.288 0.119994 791.908 0.119994 780.148ZM0.119989 679.806C0.119988 661.086 5.93999 646.686 17.58 636.606C29.1 626.406 45.3 621.306 66.18 621.306C79.74 621.306 91.5 623.586 101.46 628.146C111.42 632.706 119.1 639.366 124.5 648.126C129.9 656.886 132.6 667.446 132.6 679.806C132.6 698.526 126.78 712.986 115.14 723.186C103.38 733.266 87.06 738.306 66.18 738.306C52.62 738.306 40.92 736.026 31.08 731.466C21.12 726.906 13.5 720.246 8.21999 711.486C2.81999 702.726 0.11999 692.166 0.119989 679.806ZM26.4 679.806C26.4 686.886 29.46 691.986 35.58 695.106C41.58 698.226 51.78 699.786 66.18 699.786C80.58 699.786 90.9 698.226 97.14 695.106C103.26 691.986 106.32 686.886 106.32 679.806C106.32 672.606 103.26 667.506 97.14 664.506C91.02 661.386 80.7 659.826 66.18 659.826C51.78 659.826 41.58 661.386 35.58 664.506C29.46 667.626 26.4 672.726 26.4 679.806ZM129 508.189L129 554.629L37.56 581.989L41.52 581.449C50.28 580.129 58.32 579.109 65.64 578.389C72.84 577.549 81 577.129 90.12 577.129L129 577.129L129 609.889L3.71998 609.889L3.71998 564.349L95.52 535.909L91.74 536.449C83.46 537.889 75.78 539.029 68.7 539.869C61.5 540.589 53.22 540.949 43.86 540.949L3.71998 540.949L3.71998 508.189L129 508.189ZM3.71997 399.763L31.44 403.543L31.44 431.983L129 431.983L129 469.063L31.44 469.063L31.44 499.483L3.71998 499.483L3.71997 399.763ZM129 336.24L104.7 341.1L104.7 370.8L129 375.48L129 414.18L3.71997 377.64L3.71997 333.36L129 297L129 336.24ZM78.78 365.58L78.78 346.32L29.64 356.04L78.78 365.58ZM0.11997 239.972C0.119969 224.492 5.03997 211.052 14.88 199.652L35.04 216.752C32.4 220.352 30.36 223.892 28.92 227.372C27.48 230.732 26.76 234.332 26.76 238.172C26.76 245.492 30.06 251.192 36.66 255.272C43.26 259.232 53.04 261.212 66 261.212C78.96 261.212 88.68 259.172 95.16 255.092C101.52 251.012 104.7 245.192 104.7 237.632C104.7 233.552 103.86 229.772 102.18 226.292C100.5 222.692 97.98 218.732 94.62 214.412L115.14 198.212C120.18 203.252 124.38 209.372 127.74 216.572C130.98 223.652 132.6 231.272 132.6 239.432C132.6 251.792 130.08 262.472 125.04 271.472C119.88 280.472 112.32 287.432 102.36 292.352C92.4 297.272 80.28 299.732 66 299.732C52.32 299.732 40.56 297.212 30.72 292.172C20.76 287.132 13.2 280.112 8.03997 271.112C2.75997 262.112 0.11997 251.732 0.11997 239.972ZM3.71996 99.3527L31.44 103.133L31.44 131.573L129 131.573L129 168.653L31.44 168.653L31.44 199.073L3.71996 199.073L3.71996 99.3527ZM0.119962 50.0003C0.119961 30.9203 5.81996 15.5003 17.22 3.7403L36.48 20.1203C29.76 28.5203 26.4 37.4603 26.4 46.9403C26.4 51.3803 27.18 54.7403 28.74 57.0203C30.3 59.3003 32.52 60.4403 35.4 60.4403C37.56 60.4403 39.36 59.8403 40.8 58.6403C42.12 57.3203 43.38 55.2203 44.58 52.3403C45.78 49.3403 47.46 44.5403 49.62 37.9403C53.82 24.7403 59.1 15.2603 65.46 9.5003C71.82 3.6203 80.52 0.680306 91.56 0.680306C99.6 0.680305 106.74 2.84031 112.98 7.16031C119.1 11.3603 123.9 17.4203 127.38 25.3403C130.86 33.2603 132.6 42.6203 132.6 53.4203C132.6 64.4603 130.86 74.1803 127.38 82.5803C123.9 90.9803 119.34 98.0603 113.7 103.82L93.72 85.6403C101.88 76.1603 105.96 65.9003 105.96 54.8603C105.96 49.7003 104.94 45.8003 102.9 43.1603C100.74 40.5203 97.98 39.2003 94.62 39.2003C92.1 39.2003 90 39.8003 88.32 41.0003C86.64 42.0803 85.08 44.0603 83.64 46.9403C82.2 49.8203 80.64 54.0203 78.96 59.5403C74.4 74.0603 68.94 84.2003 62.58 89.9603C56.1 95.7203 48.06 98.6003 38.46 98.6003C30.66 98.6003 23.88 96.5003 18.12 92.3003C12.36 88.1003 7.91996 82.3403 4.79996 75.0203C1.67996 67.5803 0.119962 59.2403 0.119962 50.0003Z" fill="black" fill-opacity="0.03"/>
</svg>
