<svg width="40" height="40" viewBox="0 0 40 40" fill="none" xmlns="http://www.w3.org/2000/svg">
<path class="exLink" fill-rule="evenodd" clip-rule="evenodd" d="M13 15C12.7348 15 12.4804 15.1054 12.2929 15.2929C12.1054 15.4804 12 15.7348 12 16V27C12 27.2652 12.1054 27.5196 12.2929 27.7071C12.4804 27.8946 12.7348 28 13 28H24C24.2652 28 24.5196 27.8946 24.7071 27.7071C24.8946 27.5196 25 27.2652 25 27V21C25 20.4477 25.4477 20 26 20C26.5523 20 27 20.4477 27 21V27C27 27.7957 26.6839 28.5587 26.1213 29.1213C25.5587 29.6839 24.7957 30 24 30H13C12.2043 30 11.4413 29.6839 10.8787 29.1213C10.3161 28.5587 10 27.7957 10 27V16C10 15.2044 10.3161 14.4413 10.8787 13.8787C11.4413 13.3161 12.2044 13 13 13H19C19.5523 13 20 13.4477 20 14C20 14.5523 19.5523 15 19 15H13Z" fill="#FF4D00"/>
<path class="exLink"  fill-rule="evenodd" clip-rule="evenodd" d="M22 11C22 10.4477 22.4477 10 23 10H29C29.5523 10 30 10.4477 30 11V17C30 17.5523 29.5523 18 29 18C28.4477 18 28 17.5523 28 17V12H23C22.4477 12 22 11.5523 22 11Z" fill="#FF4D00"/>
<path class="exLink"  fill-rule="evenodd" clip-rule="evenodd" d="M29.7071 10.2929C30.0976 10.6834 30.0976 11.3166 29.7071 11.7071L18.7071 22.7071C18.3166 23.0976 17.6834 23.0976 17.2929 22.7071C16.9024 22.3166 16.9024 21.6834 17.2929 21.2929L28.2929 10.2929C28.6834 9.90237 29.3166 9.90237 29.7071 10.2929Z" fill="#FF4D00"/>
<rect x="0.5" y="0.5" width="39" height="39" stroke="#FF4D00"/>
</svg>
