<svg width="150" height="28" viewBox="0 0 150 28" fill="none" xmlns="http://www.w3.org/2000/svg">
<path d="M69.4053 13.6426C69.4053 11.3781 69.8943 9.5939 70.8723 8.28986C71.8504 6.98582 73.2161 6.3338 74.9695 6.3338C76.2471 6.3338 77.322 6.83603 78.1943 7.84049V0.597778H82.6616V20.8985H78.6569L78.4322 19.3654C77.5159 20.5637 76.3528 21.1629 74.943 21.1629C73.2425 21.1629 71.8944 20.5108 70.8988 19.2068C69.9031 17.9028 69.4053 16.048 69.4053 13.6426ZM73.8593 13.9201C73.8593 16.4577 74.5994 17.7265 76.0797 17.7265C77.0665 17.7265 77.7714 17.3124 78.1943 16.4842V11.0389C77.789 10.1931 77.0929 9.77012 76.1061 9.77012C74.7316 9.77012 73.987 10.8803 73.8725 13.1007L73.8593 13.9201Z" fill="#323232"/>
<path d="M92.1115 21.1629C89.9175 21.1629 88.1421 20.5108 86.7851 19.2068C85.4282 17.8939 84.7498 16.189 84.7498 14.092V13.7219C84.7498 12.2593 85.0185 10.9684 85.556 9.84942C86.1023 8.73041 86.8953 7.86693 87.935 7.25896C88.9747 6.64219 90.2083 6.3338 91.6357 6.3338C93.6446 6.3338 95.2306 6.95938 96.3936 8.21056C97.5567 9.45292 98.1382 11.1887 98.1382 13.4179V15.1493H89.2831C89.4417 15.9511 89.7897 16.5811 90.3272 17.0393C90.8647 17.4974 91.5608 17.7265 92.4154 17.7265C93.8252 17.7265 94.9266 17.2331 95.7196 16.2463L97.755 18.6517C97.1999 19.4183 96.4113 20.0306 95.3892 20.4888C94.3759 20.9382 93.2833 21.1629 92.1115 21.1629ZM91.6092 9.77012C90.3052 9.77012 89.5298 10.6336 89.2831 12.3606H93.7767V12.0169C93.7944 11.3033 93.6137 10.7526 93.2349 10.3649C92.856 9.96837 92.3141 9.77012 91.6092 9.77012Z" fill="#323232"/>
<path d="M107.43 16.8807C107.43 16.5018 107.231 16.1978 106.835 15.9687C106.438 15.7396 105.685 15.5017 104.575 15.255C103.465 15.0083 102.548 14.6867 101.826 14.2902C101.103 13.8849 100.552 13.3959 100.174 12.8232C99.7947 12.2504 99.6053 11.594 99.6053 10.8539C99.6053 9.54103 100.147 8.46168 101.231 7.61581C102.315 6.76114 103.733 6.3338 105.487 6.3338C107.372 6.3338 108.888 6.76114 110.033 7.61581C111.179 8.47049 111.751 9.5939 111.751 10.9861H107.284C107.284 9.84061 106.681 9.26789 105.473 9.26789C105.006 9.26789 104.614 9.40006 104.297 9.66439C103.98 9.91991 103.821 10.2415 103.821 10.6292C103.821 11.0257 104.015 11.3473 104.403 11.594C104.791 11.8407 105.407 12.0434 106.253 12.202C107.108 12.3606 107.857 12.55 108.5 12.7703C110.65 13.5104 111.725 14.8365 111.725 16.7485C111.725 18.0525 111.143 19.1143 109.98 19.9337C108.826 20.7531 107.328 21.1629 105.487 21.1629C104.262 21.1629 103.169 20.9426 102.209 20.502C101.249 20.0615 100.5 19.4623 99.9621 18.7046C99.4247 17.9468 99.1559 17.1494 99.1559 16.3124H103.319C103.337 16.9732 103.557 17.4578 103.98 17.7662C104.403 18.0658 104.945 18.2156 105.606 18.2156C106.214 18.2156 106.667 18.0922 106.967 17.8455C107.275 17.5988 107.43 17.2772 107.43 16.8807Z" fill="#323232"/>
<path d="M118.518 20.8985H114.051V6.59813H118.518V20.8985ZM113.787 2.91069C113.787 2.27629 114.016 1.75644 114.474 1.35113C114.932 0.945816 115.527 0.743161 116.258 0.743161C116.99 0.743161 117.584 0.945816 118.042 1.35113C118.501 1.75644 118.73 2.27629 118.73 2.91069C118.73 3.54509 118.501 4.06494 118.042 4.47025C117.584 4.87556 116.99 5.07822 116.258 5.07822C115.527 5.07822 114.932 4.87556 114.474 4.47025C114.016 4.06494 113.787 3.54509 113.787 2.91069Z" fill="#323232"/>
<path d="M120.752 13.6426C120.752 12.1976 120.99 10.92 121.466 9.80977C121.941 8.69957 122.624 7.8449 123.514 7.24575C124.404 6.63778 125.439 6.3338 126.62 6.3338C128.109 6.3338 129.272 6.83603 130.109 7.84049L130.268 6.59813H134.312V20.3566C134.312 21.6166 134.017 22.7092 133.427 23.6344C132.845 24.5683 131.999 25.282 130.889 25.7755C129.779 26.2777 128.492 26.5288 127.03 26.5288C125.981 26.5288 124.964 26.3306 123.977 25.9341C122.999 25.5376 122.25 25.0221 121.73 24.3877L123.593 21.7708C124.422 22.7489 125.514 23.2379 126.871 23.2379C128.845 23.2379 129.832 22.2246 129.832 20.198V19.7487C128.977 20.6915 127.898 21.1629 126.594 21.1629C124.849 21.1629 123.439 20.4976 122.364 19.1671C121.289 17.8279 120.752 16.0392 120.752 13.8012V13.6426ZM125.219 13.9201C125.219 15.092 125.439 16.0216 125.88 16.7089C126.321 17.3873 126.937 17.7265 127.73 17.7265C128.691 17.7265 129.391 17.4049 129.832 16.7617V10.7482C129.4 10.0961 128.708 9.77012 127.757 9.77012C126.964 9.77012 126.343 10.127 125.893 10.8407C125.444 11.5456 125.219 12.572 125.219 13.9201Z" fill="#323232"/>
<path d="M140.934 6.59813L141.079 8.27664C142.066 6.98141 143.427 6.3338 145.163 6.3338C146.652 6.3338 147.762 6.77876 148.494 7.66868C149.234 8.5586 149.617 9.89788 149.643 11.6865V20.8985H145.176V11.8716C145.176 11.1491 145.031 10.6204 144.74 10.2856C144.449 9.94194 143.921 9.77012 143.154 9.77012C142.282 9.77012 141.634 10.1138 141.211 10.801V20.8985H136.757V6.59813H140.934Z" fill="#323232"/>
<path d="M12.4897 15.8762H4.42757L2.61689 20.8985H0L7.34845 1.65511H9.56884L16.9305 20.8985H14.3268L12.4897 15.8762ZM5.19414 13.788H11.7364L8.45865 4.78745L5.19414 13.788Z" fill="#323232"/>
<path d="M21.4506 6.59813L21.5299 8.39559C22.6225 7.02106 24.0499 6.3338 25.8121 6.3338C28.8343 6.3338 30.3586 8.03874 30.385 11.4486V20.8985H27.94V11.4354C27.9312 10.4045 27.6933 9.64236 27.2263 9.14894C26.7681 8.65552 26.05 8.40881 25.072 8.40881C24.279 8.40881 23.5829 8.62028 22.9837 9.04321C22.3846 9.46614 21.9176 10.0212 21.5828 10.7085V20.8985H19.1377V6.59813H21.4506Z" fill="#323232"/>
<path d="M36.729 20.8985H34.284V6.59813H36.729V20.8985ZM34.0857 2.80496C34.0857 2.40846 34.2047 2.07364 34.4426 1.80049C34.6893 1.52735 35.0505 1.39078 35.5263 1.39078C36.0021 1.39078 36.3634 1.52735 36.6101 1.80049C36.8568 2.07364 36.9801 2.40846 36.9801 2.80496C36.9801 3.20146 36.8568 3.53187 36.6101 3.7962C36.3634 4.06054 36.0021 4.1927 35.5263 4.1927C35.0505 4.1927 34.6893 4.06054 34.4426 3.7962C34.2047 3.53187 34.0857 3.20146 34.0857 2.80496Z" fill="#323232"/>
<path d="M44.6458 14.277L43.1127 15.8762V20.8985H40.6676V0.597778H43.1127V12.876L44.4211 11.3033L48.8751 6.59813H51.8489L46.2847 12.572L52.4965 20.8985H49.6285L44.6458 14.277Z" fill="#323232"/>
<path d="M63.2019 20.8985C63.061 20.6166 62.9464 20.1143 62.8583 19.3918C61.7217 20.5725 60.3648 21.1629 58.7876 21.1629C57.3778 21.1629 56.2192 20.7664 55.3116 19.9734C54.4129 19.1716 53.9635 18.1583 53.9635 16.9335C53.9635 15.4445 54.5274 14.2902 55.6553 13.4708C56.7919 12.6425 58.3867 12.2284 60.4397 12.2284H62.8187V11.105C62.8187 10.2503 62.5631 9.57187 62.0521 9.06964C61.5411 8.5586 60.7877 8.30308 59.7921 8.30308C58.9198 8.30308 58.1884 8.52335 57.5981 8.96391C57.0078 9.40446 56.7126 9.93753 56.7126 10.5631H54.2543C54.2543 9.84942 54.5054 9.16216 55.0076 8.50133C55.5187 7.83168 56.2059 7.30302 57.0694 6.91533C57.9417 6.52764 58.8977 6.3338 59.9374 6.3338C61.5851 6.3338 62.8759 6.74792 63.8099 7.57616C64.7439 8.39559 65.2285 9.52782 65.2637 10.9728V17.5547C65.2637 18.8676 65.4312 19.9117 65.766 20.6871V20.8985H63.2019ZM59.1444 19.035C59.911 19.035 60.6379 18.8367 61.3252 18.4402C62.0125 18.0437 62.5103 17.5283 62.8187 16.8939V13.9598H60.9023C57.9065 13.9598 56.4086 14.8365 56.4086 16.5899C56.4086 17.3565 56.6641 17.9556 57.1752 18.3874C57.6862 18.8191 58.3426 19.035 59.1444 19.035Z" fill="#323232"/>
<path d="M35.5267 4.51127C36.461 4.51127 37.2184 3.75385 37.2184 2.81954C37.2184 1.88522 36.461 1.12781 35.5267 1.12781C34.5924 1.12781 33.835 1.88522 33.835 2.81954C33.835 3.75385 34.5924 4.51127 35.5267 4.51127Z" fill="#E94E1B"/>
<path d="M72.1801 13.5338H66.541V15.7895H72.1801V13.5338Z" fill="#E94E1B"/>
</svg>
