<svg width="225" height="922" viewBox="0 0 225 922" fill="none" xmlns="http://www.w3.org/2000/svg">
<path d="M51.72 868.978C51.72 851.818 55.32 838.498 62.52 829.018C69.6 819.418 80.04 814.618 93.84 814.618C108.12 814.618 119.04 819.178 126.6 828.298C134.16 837.298 137.94 849.478 137.94 864.838L137.94 877.078L177 877.078L177 914.158L51.72 914.158L51.72 868.978ZM111.84 868.438C111.84 857.758 105.84 852.418 93.84 852.418C82.92 852.418 77.46 858.118 77.46 869.518L77.46 877.078L111.84 877.078L111.84 868.438ZM48.12 749.759C48.12 731.039 53.94 716.639 65.58 706.559C77.1 696.359 93.3 691.259 114.18 691.259C127.74 691.259 139.5 693.539 149.46 698.099C159.42 702.659 167.1 709.319 172.5 718.079C177.9 726.839 180.6 737.399 180.6 749.759C180.6 768.479 174.78 782.939 163.14 793.139C151.38 803.219 135.06 808.259 114.18 808.259C100.62 808.259 88.92 805.979 79.08 801.419C69.12 796.859 61.5 790.199 56.22 781.439C50.82 772.679 48.12 762.119 48.12 749.759ZM74.4 749.759C74.4 756.839 77.46 761.939 83.58 765.059C89.58 768.179 99.78 769.739 114.18 769.739C128.58 769.739 138.9 768.179 145.14 765.059C151.26 761.939 154.32 756.839 154.32 749.759C154.32 742.559 151.26 737.459 145.14 734.459C139.02 731.339 128.7 729.779 114.18 729.779C99.78 729.779 89.58 731.339 83.58 734.459C77.46 737.579 74.4 742.679 74.4 749.759ZM132.36 635.922L132.36 642.762L177 642.762L177 679.842L51.72 679.842L51.72 633.942C51.72 615.822 54.96 602.322 61.44 593.442C67.8 584.562 77.82 580.122 91.5 580.122C99.3 580.122 105.78 581.862 110.94 585.342C116.1 588.822 120.96 594.462 125.52 602.262L177 571.662L177 612.702L132.36 635.922ZM107.52 642.762L107.52 633.042C107.52 628.002 106.2 624.222 103.56 621.702C100.92 619.182 96.9 617.922 91.5 617.922C81.9 617.922 77.1 623.562 77.1 634.842L77.1 642.762L107.52 642.762ZM51.72 478.153L79.44 481.933L79.44 510.373L177 510.373L177 547.453L79.44 547.453L79.44 577.873L51.72 577.873L51.72 478.153ZM177 471.365L51.72 471.365L51.72 391.805L77.46 395.585L77.46 434.285L104.82 434.285L104.82 400.265L130.56 400.265L130.56 434.285L177 434.285L177 471.365ZM48.12 333.158C48.12 314.438 53.94 300.038 65.58 289.958C77.1 279.758 93.3 274.658 114.18 274.658C127.74 274.658 139.5 276.938 149.46 281.498C159.42 286.058 167.1 292.718 172.5 301.478C177.9 310.238 180.6 320.798 180.6 333.158C180.6 351.878 174.78 366.338 163.14 376.538C151.38 386.618 135.06 391.658 114.18 391.658C100.62 391.658 88.92 389.378 79.08 384.818C69.12 380.258 61.5 373.598 56.22 364.838C50.82 356.078 48.12 345.518 48.12 333.158ZM74.4 333.158C74.4 340.238 77.46 345.338 83.58 348.458C89.58 351.578 99.78 353.138 114.18 353.138C128.58 353.138 138.9 351.578 145.14 348.458C151.26 345.338 154.32 340.238 154.32 333.158C154.32 325.958 151.26 320.858 145.14 317.858C139.02 314.738 128.7 313.178 114.18 313.178C99.78 313.178 89.58 314.738 83.58 317.858C77.46 320.978 74.4 326.078 74.4 333.158ZM51.72 226.16L148.56 226.16L148.56 178.82L177 182.6L177 263.24L51.72 263.24L51.72 226.16ZM51.72 132.117L177 132.117L177 169.197L51.72 169.197L51.72 132.117ZM48.12 62.2789C48.12 43.5589 53.94 29.1589 65.58 19.0789C77.1 8.8789 93.3 3.7789 114.18 3.7789C127.74 3.7789 139.5 6.0589 149.46 10.6189C159.42 15.1789 167.1 21.8389 172.5 30.5989C177.9 39.3589 180.6 49.9189 180.6 62.2789C180.6 80.9989 174.78 95.4589 163.14 105.659C151.38 115.739 135.06 120.779 114.18 120.779C100.62 120.779 88.92 118.499 79.08 113.939C69.12 109.379 61.5 102.719 56.22 93.9589C50.82 85.1989 48.12 74.6389 48.12 62.2789ZM74.4 62.2789C74.4 69.3589 77.46 74.4589 83.58 77.5789C89.58 80.6989 99.78 82.2589 114.18 82.2589C128.58 82.2589 138.9 80.6989 145.14 77.5789C151.26 74.4589 154.32 69.3589 154.32 62.2789C154.32 55.0789 151.26 49.9789 145.14 46.9789C139.02 43.8589 128.7 42.2989 114.18 42.2989C99.78 42.2989 89.58 43.8589 83.58 46.9789C77.46 50.0989 74.4 55.1989 74.4 62.2789Z" fill="black" fill-opacity="0.03"/>
<path d="M8.944 173.642L34 177.278L34 186.926L16 189.158L34 191.642L34 201.074L8.944 204.566L8.944 197.15L28.636 195.566L8.944 192.902L8.944 185.162L28.636 182.93L8.944 180.77L8.944 173.642ZM8.944 155.629L14.092 156.385L14.092 164.665L18.772 164.665L18.772 157.393L23.776 157.393L23.776 164.665L28.816 164.665L28.816 155.809L34 155.809L34 172.081L8.944 172.081L8.944 155.629ZM20.716 138.654C21.052 136.998 21.676 135.654 22.588 134.622C23.476 133.59 24.808 133.074 26.584 133.074C29.344 133.074 31.276 134.082 32.38 136.098C33.46 138.09 34 140.922 34 144.594L34 153.378L8.944 153.378L8.944 145.566C8.944 141.846 9.448 139.014 10.456 137.07C11.44 135.102 13.096 134.118 15.424 134.118C16.912 134.118 18.088 134.55 18.952 135.414C19.792 136.278 20.38 137.358 20.716 138.654ZM14.02 145.962L18.628 145.962L18.628 144.702C18.628 143.574 18.448 142.782 18.088 142.326C17.704 141.87 17.068 141.642 16.18 141.642C15.436 141.642 14.896 141.894 14.56 142.398C14.2 142.878 14.02 143.706 14.02 144.882L14.02 145.962ZM28.78 144.522C28.78 143.274 28.588 142.326 28.204 141.678C27.82 141.03 27.112 140.706 26.08 140.706C25.12 140.706 24.424 141.006 23.992 141.606C23.536 142.182 23.308 143.058 23.308 144.234L23.308 145.962L28.78 145.962L28.78 144.522ZM8.94399 115.045C8.94399 111.013 9.84399 107.785 11.644 105.361C13.42 102.937 16.66 101.725 21.364 101.725C25.996 101.725 29.26 102.889 31.156 105.217C33.052 107.545 34 110.677 34 114.613L34 123.073L8.94399 123.073L8.94399 115.045ZM14.164 115.657L28.78 115.657L28.78 114.181C28.78 113.029 28.552 112.105 28.096 111.409C27.64 110.713 26.884 110.197 25.828 109.861C24.748 109.525 23.26 109.357 21.364 109.357C19.492 109.357 18.04 109.537 17.008 109.897C15.952 110.233 15.22 110.749 14.812 111.445C14.38 112.141 14.164 113.041 14.164 114.145L14.164 115.657ZM8.94399 82.9961L14.092 83.7521L14.092 92.0321L18.772 92.0321L18.772 84.7601L23.776 84.7601L23.776 92.0321L28.816 92.0321L28.816 83.1761L34 83.1761L34 99.4481L8.94399 99.4481L8.94399 82.9961ZM8.22399 71.8805C8.22399 68.0645 9.36399 64.9805 11.644 62.6285L15.496 65.9045C14.152 67.5845 13.48 69.3725 13.48 71.2685C13.48 72.1565 13.636 72.8285 13.948 73.2845C14.26 73.7405 14.704 73.9685 15.28 73.9685C15.712 73.9685 16.072 73.8485 16.36 73.6085C16.624 73.3445 16.876 72.9245 17.116 72.3485C17.356 71.7485 17.692 70.7885 18.124 69.4685C18.964 66.8285 20.02 64.9325 21.292 63.7805C22.564 62.6045 24.304 62.0165 26.512 62.0165C28.12 62.0165 29.548 62.4485 30.796 63.3125C32.02 64.1525 32.98 65.3645 33.676 66.9485C34.372 68.5325 34.72 70.4045 34.72 72.5645C34.72 74.7725 34.372 76.7165 33.676 78.3965C32.98 80.0765 32.068 81.4925 30.94 82.6445L26.944 79.0085C28.576 77.1125 29.392 75.0605 29.392 72.8525C29.392 71.8205 29.188 71.0405 28.78 70.5125C28.348 69.9845 27.796 69.7205 27.124 69.7205C26.62 69.7205 26.2 69.8405 25.864 70.0805C25.528 70.2965 25.216 70.6925 24.928 71.2685C24.64 71.8445 24.328 72.6845 23.992 73.7885C23.08 76.6925 21.988 78.7205 20.716 79.8725C19.42 81.0245 17.812 81.6005 15.892 81.6005C14.332 81.6005 12.976 81.1805 11.824 80.3405C10.672 79.5005 9.78399 78.3485 9.15999 76.8845C8.53599 75.3965 8.22399 73.7285 8.22399 71.8805ZM8.94399 52.5165L34 52.5165L34 59.9325L8.94399 59.9325L8.94399 52.5165ZM8.22399 37.6128C8.22399 35.8128 8.52399 34.1688 9.12399 32.6808C9.72399 31.1688 10.516 29.8488 11.5 28.7208L15.244 32.3208C14.596 33.2088 14.128 34.0128 13.84 34.7328C13.552 35.4528 13.408 36.2688 13.408 37.1808C13.408 38.9328 14.08 40.2768 15.424 41.2128C16.744 42.1488 18.76 42.6168 21.472 42.6168C23.512 42.6168 25.12 42.4728 26.296 42.1848C27.448 41.8968 28.264 41.4528 28.744 40.8528C29.224 40.2288 29.464 39.4128 29.464 38.4048C29.464 37.5168 29.26 36.6648 28.852 35.8488L24.28 35.8488L24.28 38.3688L19.276 39.0528L19.276 28.7208L31.84 28.7208C32.752 30.0408 33.46 31.5528 33.964 33.2568C34.468 34.9608 34.72 36.6048 34.72 38.1888C34.72 42.2928 33.604 45.3288 31.372 47.2968C29.116 49.2648 25.804 50.2488 21.436 50.2488C18.676 50.2488 16.3 49.7088 14.308 48.6288C12.316 47.5488 10.804 46.0488 9.77199 44.1288C8.73999 42.2088 8.22399 40.0368 8.22399 37.6128ZM34 5.56123L34 14.8492L15.712 20.3212L16.504 20.2132C18.256 19.9492 19.864 19.7452 21.328 19.6012C22.768 19.4332 24.4 19.3492 26.224 19.3492L34 19.3492L34 25.9012L8.94399 25.9012L8.94399 16.7932L27.304 11.1052L26.548 11.2132C24.892 11.5012 23.356 11.7292 21.94 11.8972C20.5 12.0412 18.844 12.1132 16.972 12.1132L8.94399 12.1132L8.94399 5.56123L34 5.56123Z" fill="black" fill-opacity="0.03"/>
</svg>
