<svg width="1286" height="263" viewBox="0 0 1286 263" fill="none" xmlns="http://www.w3.org/2000/svg">
<path d="M60.8 1.87999C62.3731 1.22029 63.9653 0.593625 65.5766 0H165.369C182.837 5.99608 198.141 15.3627 211.28 28.1L176.7 68.76C158.967 54.5733 140.093 47.48 120.08 47.48C110.707 47.48 103.613 49.1267 98.8 52.42C93.9867 55.7133 91.58 60.4 91.58 66.48C91.58 71.04 92.8467 74.84 95.38 77.88C98.1667 80.6667 102.6 83.3267 108.68 85.86C115.013 88.3933 125.147 91.94 139.08 96.5C166.947 105.367 186.96 116.513 199.12 129.94C211.533 143.367 217.74 161.733 217.74 185.04C217.74 202.013 213.18 217.087 204.06 230.26C195.193 243.18 182.4 253.313 165.68 260.66C163.799 261.486 161.88 262.266 159.922 263H50.9307C48.8652 262.266 46.835 261.486 44.84 260.66C27.1067 253.313 12.16 243.687 0 231.78L38.38 189.6C58.3933 206.827 80.0533 215.44 103.36 215.44C114.253 215.44 122.487 213.287 128.06 208.98C133.633 204.42 136.42 198.593 136.42 191.5C136.42 186.18 135.153 181.747 132.62 178.2C130.34 174.653 126.16 171.36 120.08 168.32C114 165.28 105.133 161.987 93.48 158.44C62.8267 148.813 41.42 137.287 29.26 123.86C17.1 110.18 11.02 93.2067 11.02 72.94C11.02 56.4733 15.4533 42.16 24.32 30C33.1867 17.84 45.3467 8.46666 60.8 1.87999Z" fill="white"/>
<path fill-rule="evenodd" clip-rule="evenodd" d="M1212.35 263C1218.3 260.665 1223.93 257.858 1229.25 254.58C1247.74 243.18 1261.8 226.967 1271.43 205.94C1281.06 184.913 1285.87 160.087 1285.87 131.46C1285.87 87.38 1275.1 53.18 1253.57 28.86C1242.2 15.7347 1228.24 6.11471 1211.67 0H1114.16C1107.56 2.4641 1101.33 5.49744 1095.49 9.10001C1077 20.2467 1062.94 36.3333 1053.31 57.36C1043.68 78.1333 1038.87 102.833 1038.87 131.46C1038.87 175.54 1049.51 209.993 1070.79 234.82C1081.87 247.469 1095.34 256.862 1111.19 263H1212.35ZM1162.37 47.48C1147.42 47.48 1136.66 53.94 1130.07 66.86C1123.48 79.5267 1120.19 101.06 1120.19 131.46C1120.19 161.86 1123.48 183.647 1130.07 196.82C1136.66 209.74 1147.42 216.2 1162.37 216.2C1177.57 216.2 1188.34 209.74 1194.67 196.82C1201.26 183.9 1204.55 162.113 1204.55 131.46C1204.55 101.06 1201.26 79.5267 1194.67 66.86C1188.08 53.94 1177.32 47.48 1162.37 47.48Z" fill="white"/>
<path d="M1014.93 263V0H936.653V263H1014.93Z" fill="white"/>
<path fill-rule="evenodd" clip-rule="evenodd" d="M799.303 263C830.36 259.924 855.845 250.277 875.758 234.06C900.331 214.047 912.617 179.593 912.617 130.7C912.617 81.0467 899.824 46.8467 874.237 28.1C851.682 11.3509 822.532 1.98427 786.787 0H687.278V263H799.303ZM765.557 54.7V208.98H781.138C793.297 208.98 803.051 206.573 810.398 201.76C817.744 196.947 823.191 188.967 826.737 177.82C830.284 166.42 832.057 150.713 832.057 130.7C832.057 110.94 830.157 95.6133 826.357 84.72C822.811 73.5733 817.364 65.8467 810.018 61.54C802.671 56.98 793.171 54.7 781.518 54.7H765.557Z" fill="white"/>
<path d="M600.925 263C603.906 261.831 606.78 260.545 609.547 259.14C626.013 250.527 638.3 238.873 646.407 224.18C654.513 209.487 658.567 192.893 658.567 174.4V0H580.287V172.12C580.287 187.067 577.753 198.087 572.687 205.18C567.873 212.02 559.893 215.44 548.747 215.44C537.6 215.44 529.493 212.02 524.427 205.18C519.613 198.087 517.207 187.067 517.207 172.12V0H438.927V174.4C438.927 204.293 448.173 227.98 466.667 245.46C474.52 252.883 483.971 258.729 495.022 263H600.925Z" fill="white"/>
<path d="M360.377 263V58.12H420.417L428.342 0H217.877V58.12H282.097V263H360.377Z" fill="white"/>
<path d="M946.818 26.4299V14.5939H948.358C949.311 14.5939 950.14 14.7406 950.844 15.0339C951.548 15.3126 952.127 15.8846 952.582 16.7499C953.036 17.6006 953.264 18.8253 953.264 20.4239C953.264 22.6973 952.824 24.2666 951.944 25.1319C951.064 25.9973 949.92 26.4299 948.512 26.4299H946.818Z" fill="#FF4D00"/>
<path d="M964.848 18.7299C965.302 19.3313 965.53 20.2039 965.53 21.3479V21.4799H960.096C960.242 19.0453 961.144 17.8279 962.802 17.8279C963.711 17.8279 964.393 18.1286 964.848 18.7299Z" fill="#FF4D00"/>
<path d="M990.697 17.6739C989.934 17.6739 989.34 17.9159 988.915 18.3999C988.504 18.8693 988.299 19.4926 988.299 20.2699C988.299 21.0619 988.511 21.6999 988.937 22.1839C989.362 22.6533 989.963 22.8879 990.741 22.8879C991.533 22.8879 992.134 22.6606 992.545 22.2059C992.97 21.7366 993.183 21.0839 993.183 20.2479C993.183 18.5319 992.354 17.6739 990.697 17.6739Z" fill="#FF4D00"/>
<path fill-rule="evenodd" clip-rule="evenodd" d="M937 0.0799561H1015V41.08H937V0.0799561ZM983.058 28.0799V16.4859H981.034V28.0799H983.058ZM983.058 11.3159C982.794 11.0519 982.449 10.9199 982.024 10.9199C981.613 10.9199 981.276 11.0519 981.012 11.3159C980.748 11.5799 980.616 11.9099 980.616 12.3059C980.616 12.7019 980.748 13.0319 981.012 13.2959C981.276 13.5453 981.613 13.6699 982.024 13.6699C982.449 13.6699 982.794 13.5453 983.058 13.2959C983.322 13.0319 983.454 12.7019 983.454 12.3059C983.454 11.9099 983.322 11.5799 983.058 11.3159ZM953.396 14.5279C952.017 13.4573 950.184 12.9219 947.896 12.9219H944.728V28.0799H948.358C950.338 28.0799 952.017 27.5079 953.396 26.3639C954.789 25.2053 955.486 23.2253 955.486 20.4239C955.486 17.5493 954.789 15.5839 953.396 14.5279ZM967.488 22.9759C967.517 22.6239 967.532 22.2793 967.532 21.9419C967.532 20.1526 967.121 18.7519 966.3 17.7399C965.478 16.7279 964.298 16.2219 962.758 16.2219C961.775 16.2219 960.917 16.4859 960.184 17.0139C959.465 17.5419 958.908 18.2753 958.512 19.2139C958.13 20.1379 957.94 21.2013 957.94 22.4039C957.94 24.2519 958.387 25.7039 959.282 26.7599C960.191 27.8159 961.452 28.3439 963.066 28.3439C964.532 28.3439 965.882 27.8599 967.114 26.8919L966.234 25.6819C965.72 26.0339 965.229 26.2906 964.76 26.4519C964.29 26.6133 963.777 26.6939 963.22 26.6939C962.34 26.6939 961.621 26.3933 961.064 25.7919C960.506 25.1906 960.184 24.2519 960.096 22.9759H967.488ZM973.91 16.2219C974.702 16.2219 975.413 16.3319 976.044 16.5519C976.675 16.7719 977.276 17.1019 977.848 17.5419L976.99 18.8179C976.462 18.4806 975.956 18.2313 975.472 18.0699C975.003 17.9086 974.504 17.8279 973.976 17.8279C973.316 17.8279 972.795 17.9673 972.414 18.2459C972.033 18.5099 971.842 18.8766 971.842 19.3459C971.842 19.8153 972.018 20.1819 972.37 20.4459C972.737 20.7099 973.389 20.9666 974.328 21.2159C975.619 21.5386 976.579 21.9786 977.21 22.5359C977.855 23.0933 978.178 23.8559 978.178 24.8239C978.178 25.9679 977.731 26.8406 976.836 27.4419C975.956 28.0433 974.878 28.3439 973.602 28.3439C971.842 28.3439 970.383 27.8379 969.224 26.8259L970.302 25.5939C971.285 26.3419 972.37 26.7159 973.558 26.7159C974.321 26.7159 974.922 26.5619 975.362 26.2539C975.817 25.9313 976.044 25.4986 976.044 24.9559C976.044 24.5599 975.963 24.2446 975.802 24.0099C975.641 23.7606 975.362 23.5479 974.966 23.3719C974.57 23.1813 973.991 22.9833 973.228 22.7779C971.996 22.4553 971.101 22.0226 970.544 21.4799C970.001 20.9373 969.73 20.2479 969.73 19.4119C969.73 18.8106 969.906 18.2679 970.258 17.7839C970.625 17.2853 971.123 16.9039 971.754 16.6399C972.399 16.3613 973.118 16.2219 973.91 16.2219ZM996.593 17.0139C996.153 17.1606 995.669 17.2559 995.141 17.2999C994.613 17.3439 993.967 17.3659 993.205 17.3659C994.569 17.9819 995.251 18.9573 995.251 20.2919C995.251 21.4506 994.855 22.3966 994.063 23.1299C993.271 23.8633 992.193 24.2299 990.829 24.2299C990.301 24.2299 989.809 24.1566 989.355 24.0099C989.179 24.1273 989.039 24.2886 988.937 24.4939C988.834 24.6846 988.783 24.8826 988.783 25.0879C988.783 25.7186 989.289 26.0339 990.301 26.0339H992.149C992.926 26.0339 993.615 26.1733 994.217 26.4519C994.818 26.7306 995.28 27.1119 995.603 27.5959C995.94 28.0799 996.109 28.6299 996.109 29.2459C996.109 30.3753 995.647 31.2406 994.723 31.8419C993.799 32.4579 992.449 32.7659 990.675 32.7659C989.428 32.7659 988.438 32.6339 987.705 32.3699C986.986 32.1206 986.473 31.7393 986.165 31.2259C985.857 30.7126 985.703 30.0526 985.703 29.2459H987.529C987.529 29.7153 987.617 30.0819 987.793 30.3459C987.969 30.6246 988.284 30.8299 988.739 30.9619C989.193 31.1086 989.839 31.1819 990.675 31.1819C991.892 31.1819 992.757 31.0279 993.271 30.7199C993.799 30.4266 994.063 29.9793 994.063 29.3779C994.063 28.8353 993.857 28.4246 993.447 28.1459C993.036 27.8673 992.464 27.7279 991.731 27.7279H989.905C988.922 27.7279 988.174 27.5226 987.661 27.1119C987.162 26.6866 986.913 26.1586 986.913 25.5279C986.913 25.1466 987.023 24.7799 987.243 24.4279C987.463 24.0759 987.778 23.7606 988.189 23.4819C987.514 23.1299 987.015 22.6973 986.693 22.1839C986.385 21.6559 986.231 21.0179 986.231 20.2699C986.231 19.4926 986.421 18.7959 986.803 18.1799C987.199 17.5639 987.734 17.0873 988.409 16.7499C989.098 16.3979 989.861 16.2219 990.697 16.2219C991.606 16.2366 992.369 16.2073 992.985 16.1339C993.601 16.0459 994.107 15.9359 994.503 15.8039C994.913 15.6573 995.412 15.4519 995.999 15.1879L996.593 17.0139ZM1006.59 17.1679C1006.01 16.5373 1005.18 16.2219 1004.13 16.2219C1003.39 16.2219 1002.72 16.3979 1002.1 16.7499C1001.5 17.1019 1001 17.5859 1000.59 18.2019L1000.41 16.4859H998.672V28.0799H1000.7V19.8519C1001.11 19.1919 1001.55 18.6859 1002.02 18.3339C1002.49 17.9819 1003.03 17.8059 1003.64 17.8059C1004.25 17.8059 1004.7 17.9746 1005.01 18.3119C1005.32 18.6493 1005.47 19.2286 1005.47 20.0499V28.0799H1007.49V19.7639C1007.49 18.6639 1007.19 17.7986 1006.59 17.1679Z" fill="#FF4D00"/>
</svg>
