<svg width="514" height="225" viewBox="0 0 514 225" fill="none" xmlns="http://www.w3.org/2000/svg">
<path d="M154.649 51.7201L136.469 177H88.2293L77.0693 87.0001L64.6493 177H17.4893L0.0292969 51.7201H37.1093L45.0293 150.18L58.3493 51.7201H97.0493L108.209 150.18L119.009 51.7201H154.649ZM216.817 48.1201C235.537 48.1201 249.937 53.9401 260.017 65.5801C270.217 77.1001 275.317 93.3001 275.317 114.18C275.317 127.74 273.037 139.5 268.477 149.46C263.917 159.42 257.257 167.1 248.497 172.5C239.737 177.9 229.177 180.6 216.817 180.6C198.097 180.6 183.637 174.78 173.437 163.14C163.357 151.38 158.317 135.06 158.317 114.18C158.317 100.62 160.597 88.9201 165.157 79.0801C169.717 69.1201 176.377 61.5001 185.137 56.2201C193.897 50.8201 204.457 48.1201 216.817 48.1201ZM216.817 74.4001C209.737 74.4001 204.637 77.4601 201.517 83.5801C198.397 89.5801 196.837 99.7801 196.837 114.18C196.837 128.58 198.397 138.9 201.517 145.14C204.637 151.26 209.737 154.32 216.817 154.32C224.017 154.32 229.117 151.26 232.117 145.14C235.237 139.02 236.797 128.7 236.797 114.18C236.797 99.7801 235.237 89.5801 232.117 83.5801C228.997 77.4601 223.897 74.4001 216.817 74.4001ZM330.654 132.36H323.814V177H286.734V51.7201H332.634C350.754 51.7201 364.254 54.9601 373.134 61.4401C382.014 67.8001 386.454 77.8201 386.454 91.5001C386.454 99.3001 384.714 105.78 381.234 110.94C377.754 116.1 372.114 120.96 364.314 125.52L394.914 177H353.874L330.654 132.36ZM323.814 107.52H333.534C338.574 107.52 342.354 106.2 344.874 103.56C347.394 100.92 348.654 96.9001 348.654 91.5001C348.654 81.9001 343.014 77.1001 331.734 77.1001H323.814V107.52ZM436.138 51.7201V177H399.058V51.7201H436.138ZM510.298 51.7201L474.838 107.34L513.538 177H471.418L437.218 110.22L472.138 51.7201H510.298Z" fill="black" fill-opacity="0.03"/>
<path d="M336.358 8.944L332.722 34H323.074L320.842 16L318.358 34H308.926L305.434 8.944H312.85L314.434 28.636L317.098 8.944H324.838L327.07 28.636L329.23 8.944H336.358ZM354.371 8.944L353.615 14.092H345.335V18.772H352.607V23.776H345.335V28.816H354.191V34H337.919V8.944H354.371ZM371.346 20.716C373.002 21.052 374.346 21.676 375.378 22.588C376.41 23.476 376.926 24.808 376.926 26.584C376.926 29.344 375.918 31.276 373.902 32.38C371.91 33.46 369.078 34 365.406 34H356.622V8.944H364.434C368.154 8.944 370.986 9.448 372.93 10.456C374.898 11.44 375.882 13.096 375.882 15.424C375.882 16.912 375.45 18.088 374.586 18.952C373.722 19.792 372.642 20.38 371.346 20.716ZM364.038 14.02V18.628H365.298C366.426 18.628 367.218 18.448 367.674 18.088C368.13 17.704 368.358 17.068 368.358 16.18C368.358 15.436 368.106 14.896 367.602 14.56C367.122 14.2 366.294 14.02 365.118 14.02H364.038ZM365.478 28.78C366.726 28.78 367.674 28.588 368.322 28.204C368.97 27.82 369.294 27.112 369.294 26.08C369.294 25.12 368.994 24.424 368.394 23.992C367.818 23.536 366.942 23.308 365.766 23.308H364.038V28.78H365.478ZM394.955 8.944C398.987 8.944 402.215 9.844 404.639 11.644C407.063 13.42 408.275 16.66 408.275 21.364C408.275 25.996 407.111 29.26 404.783 31.156C402.455 33.052 399.323 34 395.387 34H386.927V8.944H394.955ZM394.343 14.164V28.78H395.819C396.971 28.78 397.895 28.552 398.591 28.096C399.287 27.64 399.803 26.884 400.139 25.828C400.475 24.748 400.643 23.26 400.643 21.364C400.643 19.492 400.463 18.04 400.103 17.008C399.767 15.952 399.251 15.22 398.555 14.812C397.859 14.38 396.959 14.164 395.855 14.164H394.343ZM427.004 8.944L426.248 14.092H417.968V18.772H425.24V23.776H417.968V28.816H426.824V34H410.552V8.944H427.004ZM438.119 8.224C441.935 8.224 445.019 9.364 447.371 11.644L444.095 15.496C442.415 14.152 440.627 13.48 438.731 13.48C437.843 13.48 437.171 13.636 436.715 13.948C436.259 14.26 436.031 14.704 436.031 15.28C436.031 15.712 436.151 16.072 436.391 16.36C436.655 16.624 437.075 16.876 437.651 17.116C438.251 17.356 439.211 17.692 440.531 18.124C443.171 18.964 445.067 20.02 446.219 21.292C447.395 22.564 447.983 24.304 447.983 26.512C447.983 28.12 447.551 29.548 446.687 30.796C445.847 32.02 444.635 32.98 443.051 33.676C441.467 34.372 439.595 34.72 437.435 34.72C435.227 34.72 433.283 34.372 431.603 33.676C429.923 32.98 428.507 32.068 427.355 30.94L430.991 26.944C432.887 28.576 434.939 29.392 437.147 29.392C438.179 29.392 438.959 29.188 439.487 28.78C440.015 28.348 440.279 27.796 440.279 27.124C440.279 26.62 440.159 26.2 439.919 25.864C439.703 25.528 439.307 25.216 438.731 24.928C438.155 24.64 437.315 24.328 436.211 23.992C433.307 23.08 431.279 21.988 430.127 20.716C428.975 19.42 428.399 17.812 428.399 15.892C428.399 14.332 428.819 12.976 429.659 11.824C430.499 10.672 431.651 9.784 433.115 9.16C434.603 8.536 436.271 8.224 438.119 8.224ZM457.484 8.944V34H450.068V8.944H457.484ZM472.387 8.224C474.187 8.224 475.831 8.524 477.319 9.124C478.831 9.724 480.151 10.516 481.279 11.5L477.679 15.244C476.791 14.596 475.987 14.128 475.267 13.84C474.547 13.552 473.731 13.408 472.819 13.408C471.067 13.408 469.723 14.08 468.787 15.424C467.851 16.744 467.383 18.76 467.383 21.472C467.383 23.512 467.527 25.12 467.815 26.296C468.103 27.448 468.547 28.264 469.147 28.744C469.771 29.224 470.587 29.464 471.595 29.464C472.483 29.464 473.335 29.26 474.151 28.852V24.28H471.631L470.947 19.276H481.279V31.84C479.959 32.752 478.447 33.46 476.743 33.964C475.039 34.468 473.395 34.72 471.811 34.72C467.707 34.72 464.671 33.604 462.703 31.372C460.735 29.116 459.751 25.804 459.751 21.436C459.751 18.676 460.291 16.3 461.371 14.308C462.451 12.316 463.951 10.804 465.871 9.772C467.791 8.74 469.963 8.224 472.387 8.224ZM504.439 34H495.151L489.679 15.712L489.787 16.504C490.051 18.256 490.255 19.864 490.399 21.328C490.567 22.768 490.651 24.4 490.651 26.224V34H484.099V8.944H493.207L498.895 27.304L498.787 26.548C498.499 24.892 498.271 23.356 498.103 21.94C497.959 20.5 497.887 18.844 497.887 16.972V8.944H504.439V34Z" fill="black" fill-opacity="0.03"/>
</svg>
