<svg width="514" height="225" viewBox="0 0 514 225" fill="none" xmlns="http://www.w3.org/2000/svg">
<path d="M154.649 51.72L136.469 177H88.2293L77.0693 87L64.6493 177H17.4893L0.0292969 51.72H37.1093L45.0293 150.18L58.3493 51.72H97.0493L108.209 150.18L119.009 51.72H154.649ZM216.817 48.12C235.537 48.12 249.937 53.94 260.017 65.58C270.217 77.1 275.317 93.3 275.317 114.18C275.317 127.74 273.037 139.5 268.477 149.46C263.917 159.42 257.257 167.1 248.497 172.5C239.737 177.9 229.177 180.6 216.817 180.6C198.097 180.6 183.637 174.78 173.437 163.14C163.357 151.38 158.317 135.06 158.317 114.18C158.317 100.62 160.597 88.92 165.157 79.08C169.717 69.12 176.377 61.5 185.137 56.22C193.897 50.82 204.457 48.12 216.817 48.12ZM216.817 74.4C209.737 74.4 204.637 77.46 201.517 83.58C198.397 89.58 196.837 99.78 196.837 114.18C196.837 128.58 198.397 138.9 201.517 145.14C204.637 151.26 209.737 154.32 216.817 154.32C224.017 154.32 229.117 151.26 232.117 145.14C235.237 139.02 236.797 128.7 236.797 114.18C236.797 99.78 235.237 89.58 232.117 83.58C228.997 77.46 223.897 74.4 216.817 74.4ZM330.654 132.36H323.814V177H286.734V51.72H332.634C350.754 51.72 364.254 54.96 373.134 61.44C382.014 67.8 386.454 77.82 386.454 91.5C386.454 99.3 384.714 105.78 381.234 110.94C377.754 116.1 372.114 120.96 364.314 125.52L394.914 177H353.874L330.654 132.36ZM323.814 107.52H333.534C338.574 107.52 342.354 106.2 344.874 103.56C347.394 100.92 348.654 96.9 348.654 91.5C348.654 81.9 343.014 77.1 331.734 77.1H323.814V107.52ZM436.138 51.72V177H399.058V51.72H436.138ZM510.298 51.72L474.838 107.34L513.538 177H471.418L437.218 110.22L472.138 51.72H510.298Z" fill="black" fill-opacity="0.03"/>
<path d="M297.666 8.944C301.098 8.944 303.762 9.664 305.658 11.104C307.578 12.52 308.538 14.608 308.538 17.368C308.538 20.224 307.626 22.408 305.802 23.92C304.002 25.432 301.566 26.188 298.494 26.188H296.046V34H288.63V8.944H297.666ZM297.774 20.968C299.91 20.968 300.978 19.768 300.978 17.368C300.978 15.184 299.838 14.092 297.558 14.092H296.046V20.968H297.774ZM321.51 8.224C325.254 8.224 328.134 9.388 330.15 11.716C332.19 14.02 333.21 17.26 333.21 21.436C333.21 24.148 332.754 26.5 331.842 28.492C330.93 30.484 329.598 32.02 327.846 33.1C326.094 34.18 323.982 34.72 321.51 34.72C317.766 34.72 314.874 33.556 312.834 31.228C310.818 28.876 309.81 25.612 309.81 21.436C309.81 18.724 310.266 16.384 311.178 14.416C312.09 12.424 313.422 10.9 315.174 9.844C316.926 8.764 319.038 8.224 321.51 8.224ZM321.51 13.48C320.094 13.48 319.074 14.092 318.45 15.316C317.826 16.516 317.514 18.556 317.514 21.436C317.514 24.316 317.826 26.38 318.45 27.628C319.074 28.852 320.094 29.464 321.51 29.464C322.95 29.464 323.97 28.852 324.57 27.628C325.194 26.404 325.506 24.34 325.506 21.436C325.506 18.556 325.194 16.516 324.57 15.316C323.946 14.092 322.926 13.48 321.51 13.48ZM342.909 8.944V28.312H352.377L351.621 34H335.493V8.944H342.909ZM372.38 8.944L364.388 24.748V34H356.972V24.784L348.98 8.944H357.08L360.788 19.168L364.532 8.944H372.38ZM383.758 8.224C385.558 8.224 387.202 8.524 388.69 9.124C390.202 9.724 391.522 10.516 392.65 11.5L389.05 15.244C388.162 14.596 387.358 14.128 386.638 13.84C385.918 13.552 385.102 13.408 384.19 13.408C382.438 13.408 381.094 14.08 380.158 15.424C379.222 16.744 378.754 18.76 378.754 21.472C378.754 23.512 378.898 25.12 379.186 26.296C379.474 27.448 379.918 28.264 380.518 28.744C381.142 29.224 381.958 29.464 382.966 29.464C383.854 29.464 384.706 29.26 385.522 28.852V24.28H383.002L382.318 19.276H392.65V31.84C391.33 32.752 389.818 33.46 388.114 33.964C386.41 34.468 384.766 34.72 383.182 34.72C379.078 34.72 376.042 33.604 374.074 31.372C372.106 29.116 371.122 25.804 371.122 21.436C371.122 18.676 371.662 16.3 372.742 14.308C373.822 12.316 375.322 10.804 377.242 9.772C379.162 8.74 381.334 8.224 383.758 8.224ZM404.254 25.072H402.886V34H395.47V8.944H404.65C408.274 8.944 410.974 9.592 412.75 10.888C414.526 12.16 415.414 14.164 415.414 16.9C415.414 18.46 415.066 19.756 414.37 20.788C413.674 21.82 412.546 22.792 410.986 23.704L417.106 34H408.898L404.254 25.072ZM402.886 20.104H404.83C405.838 20.104 406.594 19.84 407.098 19.312C407.602 18.784 407.854 17.98 407.854 16.9C407.854 14.98 406.726 14.02 404.47 14.02H402.886V20.104ZM431.075 34L430.103 29.14H424.163L423.227 34H415.487L422.795 8.944H431.651L438.923 34H431.075ZM425.207 23.956H429.059L427.115 14.128L425.207 23.956ZM448.592 8.944C452.024 8.944 454.688 9.664 456.584 11.104C458.504 12.52 459.464 14.608 459.464 17.368C459.464 20.224 458.552 22.408 456.728 23.92C454.928 25.432 452.492 26.188 449.42 26.188H446.972V34H439.556V8.944H448.592ZM448.7 20.968C450.836 20.968 451.904 19.768 451.904 17.368C451.904 15.184 450.764 14.092 448.484 14.092H446.972V20.968H448.7ZM474.704 34V23.884H468.98V34H461.564V8.944H468.98V18.196H474.704V8.944H482.12V34H474.704ZM506.536 8.944L498.544 24.748V34H491.128V24.784L483.136 8.944H491.236L494.944 19.168L498.688 8.944H506.536Z" fill="black" fill-opacity="0.03"/>
</svg>
